<?xml version="1.0" standalone="no"?>
<!DOCTYPE svg PUBLIC "-//W3C//DTD SVG 20010904//EN"
 "http://www.w3.org/TR/2001/REC-SVG-20010904/DTD/svg10.dtd">
<svg version="1.0" xmlns="http://www.w3.org/2000/svg"
 width="300.000000pt" height="300.000000pt" viewBox="0 0 300.000000 300.000000"
 preserveAspectRatio="xMidYMid meet">
<metadata>
Created by potrace 1.11, written by Peter Selinger 2001-2013
</metadata>
<g transform="translate(0.000000,300.000000) scale(0.100000,-0.100000)"
fill="#000000" stroke="none">
<path d="M1336 2250 c-143 -23 -339 -99 -420 -163 l-28 -23 60 -121 c44 -88
67 -122 83 -126 15 -4 45 8 97 38 121 71 188 90 317 90 95 0 116 -3 152 -23
60 -32 93 -86 100 -163 5 -51 4 -61 -8 -57 -94 36 -358 44 -469 15 -164 -43
-297 -141 -356 -262 -27 -56 -29 -68 -29 -180 0 -116 1 -122 34 -187 81 -162
248 -258 447 -258 141 0 270 43 384 129 30 23 57 41 61 41 4 0 10 -11 13 -25
10 -40 73 -102 122 -121 36 -14 65 -16 152 -11 59 3 115 8 125 12 15 6 17 25
17 181 l0 174 -24 0 c-54 0 -56 9 -56 298 0 305 -8 363 -66 472 -65 124 -192
218 -345 255 -78 19 -282 27 -363 15z m240 -781 c32 -5 74 -15 92 -20 l32 -11
0 -76 0 -76 -48 -46 c-61 -59 -146 -90 -241 -90 -78 0 -132 26 -169 80 -32 47
-27 127 9 166 65 70 187 98 325 73z"/>
</g>
</svg>
